<?xml version="1.0" ?><!DOCTYPE svg  PUBLIC '-//W3C//DTD SVG 1.1//EN'  'http://www.w3.org/Graphics/SVG/1.1/DTD/svg11.dtd'><svg height="512px" style="enable-background:new 0 0 512 512;" version="1.1" viewBox="0 0 512 512" width="512px" xml:space="preserve" xmlns="http://www.w3.org/2000/svg" xmlns:xlink="http://www.w3.org/1999/xlink"><g id="_x34_5-reddit"><g><path d="M293.547,326.193c-21.623,15.652-50.652,15.614-72.275,0c-4.683-3.374-11.244-2.33-14.64,2.346    c-3.398,4.674-2.351,11.234,2.35,14.628c14.473,10.46,31.458,15.701,48.427,15.701c16.973,0,33.958-5.241,48.43-15.701    c4.68-3.394,5.748-9.932,2.35-14.628C304.77,323.821,298.225,322.819,293.547,326.193z"/><ellipse cx="204.972" cy="273.647" rx="20.974" ry="20.957"/><path d="M372.769,158.372c5.788,0,10.485-4.69,10.485-10.479c0-5.785-4.697-10.478-10.485-10.478    c-5.794,0-10.487,4.692-10.487,10.478C362.281,153.682,366.975,158.372,372.769,158.372z"/><path d="M376,16H136C69.726,16,16,69.726,16,136v240c0,66.274,53.726,120,120,120h240c66.274,0,120-53.726,120-120V136    C496,69.726,442.274,16,376,16z M404.06,279.265c0.103,1.614,0.169,3.229,0.169,4.862c0,57.786-65.882,104.795-146.82,104.795    c-80.959,0-146.817-47.009-146.817-104.795c0-1.909,0.062-3.791,0.229-5.637c-12.835-7.105-21.204-20.959-21.204-36.278    c0-23.12,18.815-41.921,41.946-41.921c9.125,0,17.682,2.829,24.58,7.945c25.34-17.271,58.901-27.187,94.113-28.4l24.331-57.007    c2.012-4.672,6.985-7.251,12.062-6.102l59.836,13.982c5.621-8.57,15.293-14.252,26.284-14.252c17.343,0,31.46,14.106,31.46,31.436    c0,17.336-14.117,31.442-31.46,31.442c-16.255,0-29.51-12.411-31.146-28.233L290.42,139.16l-17.594,41.243    c32.615,2.454,63.279,12.135,86.686,28.38c7.17-5.474,15.963-8.492,25.208-8.492c23.138,0,41.95,18.801,41.95,41.921    C426.67,258.12,417.737,272.309,404.06,279.265z"/><ellipse cx="309.845" cy="273.649" rx="20.974" ry="20.958"/></g></g><g id="Layer_1"/></svg>